<svg width="190" height="12" viewBox="0 0 190 12" fill="none" xmlns="http://www.w3.org/2000/svg">
<path d="M4.49981 0C2.01874 0 0 1.98191 0 4.41796C0 5.05338 0.132472 5.66006 0.39354 6.2213C1.51862 8.63833 3.67571 11.1902 4.31017 11.9146C4.35771 11.9688 4.42701 12 4.49994 12C4.57287 12 4.64217 11.9688 4.6897 11.9146C5.32392 11.1903 7.48101 8.63857 8.60646 6.2213C8.86765 5.66006 9 5.05338 9 4.41796C8.99975 1.98191 6.98101 0 4.49981 0ZM4.49981 6.71267C3.21099 6.71267 2.16234 5.68315 2.16234 4.41784C2.16234 3.15241 3.21099 2.12289 4.49981 2.12289C5.78864 2.12289 6.83728 3.15241 6.83728 4.41784C6.83741 5.68315 5.78876 6.71267 4.49981 6.71267Z" fill="#FFAF1E"/>
<path d="M185.5 0C183.019 0 181 1.98191 181 4.41796C181 5.05338 181.132 5.66006 181.394 6.2213C182.519 8.63833 184.676 11.1902 185.31 11.9146C185.358 11.9688 185.427 12 185.5 12C185.573 12 185.642 11.9688 185.69 11.9146C186.324 11.1903 188.481 8.63857 189.606 6.2213C189.868 5.66006 190 5.05338 190 4.41796C190 1.98191 187.981 0 185.5 0ZM185.5 6.71267C184.211 6.71267 183.162 5.68315 183.162 4.41784C183.162 3.15241 184.211 2.12289 185.5 2.12289C186.789 2.12289 187.837 3.15241 187.837 4.41784C187.837 5.68315 186.789 6.71267 185.5 6.71267Z" fill="#828282"/>
</svg>
