<svg width="298" height="121" viewBox="0 0 298 121" fill="none" xmlns="http://www.w3.org/2000/svg">
<path fill-rule="evenodd" clip-rule="evenodd" d="M123.975 97.999C123.985 97.833 124 97.668 124 97.5C124 92.805 120.194 88.999 115.5 88.999C110.805 88.999 107 92.805 107 97.5C107 97.668 107.016 97.833 107.025 97.999H106.025C106.017 97.832 106 97.668 106 97.5C106 93.197 108.861 89.567 112.783 88.398C110.552 87.369 109 85.118 109 82.499C109 78.909 111.91 76 115.5 76C119.09 76 122 78.909 122 82.499C122 85.118 120.448 87.369 118.217 88.398C122.139 89.567 125 93.197 125 97.5C125 97.668 124.983 97.832 124.975 97.999H123.975ZM121 82.499C121 79.462 118.538 76.998 115.5 76.998C112.462 76.998 110 79.462 110 82.499C110 85.537 112.462 87.999 115.5 87.999C118.538 87.999 121 85.537 121 82.499Z" fill="black"/>
<g filter="url(#filter0_d_2_12)">
<rect x="4" width="290" height="113" rx="5" fill="white"/>
</g>
<path d="M168 77.8525C169.685 75.0094 170.282 73.2484 171.448 76.7758C171.924 78.2162 172.062 80.7377 172.645 81.7451C174.203 84.4403 174.222 89.5382 175.757 84.8923C176.901 81.4301 178.547 86.0149 180.282 85.3478C183.035 84.2896 183.888 86.8685 185.669 89.7787C186.718 91.4912 188.667 95.1299 189.979 94.9964C191.706 94.8208 192.233 88.5051 194.097 87.5839C195.138 87.0695 195.946 89.014 196.874 88.1223C197.434 87.5849 197.464 85.6009 197.976 85.3478C198.807 84.9371 198.368 86.7143 198.814 86.7143C200.037 86.7143 199.938 85.4072 200.849 87.3769C201.7 89.2159 202.982 88.1605 203.77 86.7971C205.038 84.6032 206.928 83.9211 208.319 81.9521C209.545 80.2169 212.215 77.482 213.778 76.9414C215.21 76.446 215.929 79.2604 216.962 79.2604C217.818 79.2604 220.049 77.1318 220.577 75.989C221.404 74.2013 222.595 77.3669 223.379 77.0657C224.606 76.5938 225.831 72.4923 226.707 70.9783C227.545 69.5287 229.413 64.5183 230.705 64.5183C231.091 64.5183 233.69 66.8199 234.033 67.2514C235.23 68.7573 236.912 71.3143 238.247 72.4691C240.572 74.4796 242.92 67.7971 244.879 66.7544C246.158 66.0737 245.529 71.0167 247.297 69.4875C247.997 68.8821 248.374 67.7221 249.212 67.4584C250.388 67.0888 250.581 69.9448 251.415 70.3572C253.295 71.2862 255.564 67.0797 256.826 65.1394C257.595 63.9573 260.815 59.1857 261.95 61.0398C262.949 62.6728 264.071 65.1896 265.182 62.1993C266.402 58.9161 269.127 55.6198 271 54" stroke="url(#paint0_linear_2_12)" stroke-width="1.5" stroke-linecap="round" stroke-linejoin="round"/>
<path d="M62.8555 65H51.1602V62.6797L56.6797 56.7969C57.4375 55.9687 57.9961 55.2461 58.3555 54.6289C58.7227 54.0117 58.9062 53.4258 58.9062 52.8711C58.9062 52.1133 58.7148 51.5195 58.332 51.0898C57.9492 50.6523 57.4023 50.4336 56.6914 50.4336C55.9258 50.4336 55.3203 50.6992 54.875 51.2305C54.4375 51.7539 54.2188 52.4453 54.2188 53.3047H50.8203C50.8203 52.2656 51.0664 51.3164 51.5586 50.457C52.0586 49.5977 52.7617 48.9258 53.668 48.4414C54.5742 47.9492 55.6016 47.7031 56.75 47.7031C58.5078 47.7031 59.8711 48.125 60.8398 48.9688C61.8164 49.8125 62.3047 51.0039 62.3047 52.543C62.3047 53.3867 62.0859 54.2461 61.6484 55.1211C61.2109 55.9961 60.4609 57.0156 59.3984 58.1797L55.5195 62.2695H62.8555V65ZM74.9609 58.5781H76.8945V61.3086H74.9609V65H71.5742V61.3086H64.5781L64.4258 59.1758L71.5391 47.9375H74.9609V58.5781ZM67.8008 58.5781H71.5742V52.5547L71.3516 52.9414L67.8008 58.5781ZM85.6133 55.0469L88.1699 62.2656L90.7129 55.0469H93.4062V65H91.3486V62.2793L91.5537 57.583L88.8672 65H87.459L84.7793 57.5898L84.9844 62.2793V65H82.9336V55.0469H85.6133ZM103.298 65H101.247V60.7344H97.248V65H95.1973V55.0469H97.248V59.0801H101.247V55.0469H103.298V65ZM105.588 65.8545H104.118L107.782 55.0469H109.252L105.588 65.8545ZM115.493 62.3887C115.493 62.0013 115.356 61.7051 115.083 61.5C114.81 61.2904 114.317 61.0716 113.606 60.8438C112.896 60.6113 112.333 60.3835 111.918 60.1602C110.788 59.5495 110.223 58.7269 110.223 57.6924C110.223 57.1546 110.373 56.6761 110.674 56.2568C110.979 55.833 111.414 55.5026 111.979 55.2656C112.549 55.0286 113.187 54.9102 113.894 54.9102C114.604 54.9102 115.238 55.04 115.794 55.2998C116.35 55.555 116.781 55.9173 117.086 56.3867C117.396 56.8561 117.551 57.3893 117.551 57.9863H115.5C115.5 57.5306 115.356 57.1774 115.069 56.9268C114.782 56.6715 114.379 56.5439 113.859 56.5439C113.358 56.5439 112.968 56.651 112.69 56.8652C112.412 57.0749 112.273 57.3529 112.273 57.6992C112.273 58.0228 112.435 58.2939 112.759 58.5127C113.087 58.7314 113.568 58.9365 114.201 59.1279C115.368 59.4788 116.218 59.9141 116.751 60.4336C117.284 60.9531 117.551 61.6003 117.551 62.375C117.551 63.2363 117.225 63.9131 116.573 64.4053C115.922 64.8929 115.044 65.1367 113.941 65.1367C113.176 65.1367 112.479 64.9977 111.85 64.7197C111.221 64.4372 110.74 64.0521 110.407 63.5645C110.079 63.0768 109.915 62.5117 109.915 61.8691H111.973C111.973 62.9674 112.629 63.5166 113.941 63.5166C114.429 63.5166 114.81 63.4186 115.083 63.2227C115.356 63.0221 115.493 62.7441 115.493 62.3887Z" fill="black"/>
<path d="M34.376 87.8848C34.376 89.2611 34.0911 90.3138 33.5215 91.043C32.9518 91.7721 32.1178 92.1367 31.0195 92.1367C29.9349 92.1367 29.1055 91.779 28.5312 91.0635C27.957 90.348 27.6631 89.3226 27.6494 87.9873V86.1553C27.6494 84.7653 27.9365 83.7103 28.5107 82.9902C29.0895 82.2702 29.9212 81.9102 31.0059 81.9102C32.0905 81.9102 32.9199 82.2679 33.4941 82.9834C34.0684 83.6943 34.3623 84.7174 34.376 86.0527V87.8848ZM32.4004 85.875C32.4004 85.0501 32.2865 84.4508 32.0586 84.0771C31.8353 83.6989 31.4844 83.5098 31.0059 83.5098C30.541 83.5098 30.1969 83.6898 29.9736 84.0498C29.7549 84.4053 29.6387 84.9635 29.625 85.7246V88.1445C29.625 88.9557 29.7344 89.5596 29.9531 89.9561C30.1764 90.348 30.5319 90.5439 31.0195 90.5439C31.5026 90.5439 31.8512 90.3548 32.0654 89.9766C32.2796 89.5983 32.3913 89.0195 32.4004 88.2402V85.875ZM35.9004 91.0293C35.9004 90.7148 36.0052 90.4596 36.2148 90.2637C36.429 90.0677 36.6956 89.9697 37.0146 89.9697C37.3382 89.9697 37.6048 90.0677 37.8145 90.2637C38.0286 90.4596 38.1357 90.7148 38.1357 91.0293C38.1357 91.3392 38.0309 91.5921 37.8213 91.7881C37.6117 91.9795 37.3428 92.0752 37.0146 92.0752C36.6911 92.0752 36.4245 91.9795 36.2148 91.7881C36.0052 91.5921 35.9004 91.3392 35.9004 91.0293ZM44.5889 92H42.6133V84.3848L40.2549 85.1162V83.5098L44.377 82.0332H44.5889V92ZM48.123 87.1055L48.6973 82.0469H54.2754V83.6943H50.3174L50.0713 85.834C50.5407 85.5833 51.0397 85.458 51.5684 85.458C52.5163 85.458 53.2591 85.752 53.7969 86.3398C54.3346 86.9277 54.6035 87.7503 54.6035 88.8076C54.6035 89.4502 54.4668 90.0267 54.1934 90.5371C53.9245 91.043 53.5371 91.4372 53.0312 91.7197C52.5254 91.9977 51.9284 92.1367 51.2402 92.1367C50.6387 92.1367 50.0804 92.016 49.5654 91.7744C49.0505 91.5283 48.6426 91.1842 48.3418 90.7422C48.0456 90.3001 47.8883 89.7965 47.8701 89.2314H49.8252C49.8662 89.6462 50.0098 89.9697 50.2559 90.2021C50.5065 90.43 50.8324 90.5439 51.2334 90.5439C51.68 90.5439 52.0241 90.3844 52.2656 90.0654C52.5072 89.7419 52.6279 89.2861 52.6279 88.6982C52.6279 88.1331 52.4889 87.7002 52.2109 87.3994C51.9329 87.0986 51.5387 86.9482 51.0283 86.9482C50.5589 86.9482 50.1784 87.0713 49.8867 87.3174L49.6953 87.4951L48.123 87.1055ZM62.5674 87.8848C62.5674 89.2611 62.2826 90.3138 61.7129 91.043C61.1432 91.7721 60.3092 92.1367 59.2109 92.1367C58.1263 92.1367 57.2969 91.779 56.7227 91.0635C56.1484 90.348 55.8545 89.3226 55.8408 87.9873V86.1553C55.8408 84.7653 56.1279 83.7103 56.7021 82.9902C57.2809 82.2702 58.1126 81.9102 59.1973 81.9102C60.2819 81.9102 61.1113 82.2679 61.6855 82.9834C62.2598 83.6943 62.5537 84.7174 62.5674 86.0527V87.8848ZM60.5918 85.875C60.5918 85.0501 60.4779 84.4508 60.25 84.0771C60.0267 83.6989 59.6758 83.5098 59.1973 83.5098C58.7324 83.5098 58.3883 83.6898 58.165 84.0498C57.9463 84.4053 57.8301 84.9635 57.8164 85.7246V88.1445C57.8164 88.9557 57.9258 89.5596 58.1445 89.9561C58.3678 90.348 58.7233 90.5439 59.2109 90.5439C59.694 90.5439 60.0426 90.3548 60.2568 89.9766C60.471 89.5983 60.5827 89.0195 60.5918 88.2402V85.875ZM70.6064 87.8848C70.6064 89.2611 70.3216 90.3138 69.752 91.043C69.1823 91.7721 68.3483 92.1367 67.25 92.1367C66.1654 92.1367 65.3359 91.779 64.7617 91.0635C64.1875 90.348 63.8936 89.3226 63.8799 87.9873V86.1553C63.8799 84.7653 64.167 83.7103 64.7412 82.9902C65.32 82.2702 66.1517 81.9102 67.2363 81.9102C68.321 81.9102 69.1504 82.2679 69.7246 82.9834C70.2988 83.6943 70.5928 84.7174 70.6064 86.0527V87.8848ZM68.6309 85.875C68.6309 85.0501 68.5169 84.4508 68.2891 84.0771C68.0658 83.6989 67.7148 83.5098 67.2363 83.5098C66.7715 83.5098 66.4274 83.6898 66.2041 84.0498C65.9854 84.4053 65.8691 84.9635 65.8555 85.7246V88.1445C65.8555 88.9557 65.9648 89.5596 66.1836 89.9561C66.4069 90.348 66.7624 90.5439 67.25 90.5439C67.7331 90.5439 68.0817 90.3548 68.2959 89.9766C68.5101 89.5983 68.6217 89.0195 68.6309 88.2402V85.875ZM78.6455 87.8848C78.6455 89.2611 78.3607 90.3138 77.791 91.043C77.2214 91.7721 76.3874 92.1367 75.2891 92.1367C74.2044 92.1367 73.375 91.779 72.8008 91.0635C72.2266 90.348 71.9326 89.3226 71.9189 87.9873V86.1553C71.9189 84.7653 72.2061 83.7103 72.7803 82.9902C73.359 82.2702 74.1908 81.9102 75.2754 81.9102C76.36 81.9102 77.1895 82.2679 77.7637 82.9834C78.3379 83.6943 78.6318 84.7174 78.6455 86.0527V87.8848ZM76.6699 85.875C76.6699 85.0501 76.556 84.4508 76.3281 84.0771C76.1048 83.6989 75.7539 83.5098 75.2754 83.5098C74.8105 83.5098 74.4665 83.6898 74.2432 84.0498C74.0244 84.4053 73.9082 84.9635 73.8945 85.7246V88.1445C73.8945 88.9557 74.0039 89.5596 74.2227 89.9561C74.446 90.348 74.8014 90.5439 75.2891 90.5439C75.7721 90.5439 76.1208 90.3548 76.335 89.9766C76.5492 89.5983 76.6608 89.0195 76.6699 88.2402V85.875ZM86.6846 87.8848C86.6846 89.2611 86.3997 90.3138 85.8301 91.043C85.2604 91.7721 84.4264 92.1367 83.3281 92.1367C82.2435 92.1367 81.4141 91.779 80.8398 91.0635C80.2656 90.348 79.9717 89.3226 79.958 87.9873V86.1553C79.958 84.7653 80.2451 83.7103 80.8193 82.9902C81.3981 82.2702 82.2298 81.9102 83.3145 81.9102C84.3991 81.9102 85.2285 82.2679 85.8027 82.9834C86.377 83.6943 86.6709 84.7174 86.6846 86.0527V87.8848ZM84.709 85.875C84.709 85.0501 84.5951 84.4508 84.3672 84.0771C84.1439 83.6989 83.793 83.5098 83.3145 83.5098C82.8496 83.5098 82.5055 83.6898 82.2822 84.0498C82.0635 84.4053 81.9473 84.9635 81.9336 85.7246V88.1445C81.9336 88.9557 82.043 89.5596 82.2617 89.9561C82.485 90.348 82.8405 90.5439 83.3281 90.5439C83.8112 90.5439 84.1598 90.3548 84.374 89.9766C84.5882 89.5983 84.6999 89.0195 84.709 88.2402V85.875ZM94.7236 87.8848C94.7236 89.2611 94.4388 90.3138 93.8691 91.043C93.2995 91.7721 92.4655 92.1367 91.3672 92.1367C90.2826 92.1367 89.4531 91.779 88.8789 91.0635C88.3047 90.348 88.0107 89.3226 87.9971 87.9873V86.1553C87.9971 84.7653 88.2842 83.7103 88.8584 82.9902C89.4372 82.2702 90.2689 81.9102 91.3535 81.9102C92.4382 81.9102 93.2676 82.2679 93.8418 82.9834C94.416 83.6943 94.71 84.7174 94.7236 86.0527V87.8848ZM92.748 85.875C92.748 85.0501 92.6341 84.4508 92.4062 84.0771C92.1829 83.6989 91.832 83.5098 91.3535 83.5098C90.8887 83.5098 90.5446 83.6898 90.3213 84.0498C90.1025 84.4053 89.9863 84.9635 89.9727 85.7246V88.1445C89.9727 88.9557 90.082 89.5596 90.3008 89.9561C90.5241 90.348 90.8796 90.5439 91.3672 90.5439C91.8503 90.5439 92.1989 90.3548 92.4131 89.9766C92.6273 89.5983 92.7389 89.0195 92.748 88.2402V85.875ZM102.763 87.8848C102.763 89.2611 102.478 90.3138 101.908 91.043C101.339 91.7721 100.505 92.1367 99.4062 92.1367C98.3216 92.1367 97.4922 91.779 96.918 91.0635C96.3438 90.348 96.0498 89.3226 96.0361 87.9873V86.1553C96.0361 84.7653 96.3232 83.7103 96.8975 82.9902C97.4762 82.2702 98.3079 81.9102 99.3926 81.9102C100.477 81.9102 101.307 82.2679 101.881 82.9834C102.455 83.6943 102.749 84.7174 102.763 86.0527V87.8848ZM100.787 85.875C100.787 85.0501 100.673 84.4508 100.445 84.0771C100.222 83.6989 99.8711 83.5098 99.3926 83.5098C98.9277 83.5098 98.5837 83.6898 98.3604 84.0498C98.1416 84.4053 98.0254 84.9635 98.0117 85.7246V88.1445C98.0117 88.9557 98.1211 89.5596 98.3398 89.9561C98.5632 90.348 98.9186 90.5439 99.4062 90.5439C99.8893 90.5439 100.238 90.3548 100.452 89.9766C100.666 89.5983 100.778 89.0195 100.787 88.2402V85.875ZM109.852 90.3525H114.206V92H107.801V82.0469H109.852V90.3525ZM121.473 83.708H118.424V92H116.373V83.708H113.365V82.0469H121.473V83.708ZM130.271 88.6846C130.193 89.7555 129.797 90.5986 129.081 91.2139C128.37 91.8291 127.431 92.1367 126.265 92.1367C124.989 92.1367 123.984 91.7083 123.25 90.8516C122.521 89.9902 122.156 88.8099 122.156 87.3105V86.7021C122.156 85.7451 122.325 84.902 122.662 84.1729C122.999 83.4437 123.48 82.8854 124.104 82.498C124.733 82.1061 125.463 81.9102 126.292 81.9102C127.44 81.9102 128.366 82.2178 129.067 82.833C129.769 83.4482 130.175 84.3118 130.284 85.4238H128.233C128.183 84.7812 128.003 84.3164 127.693 84.0293C127.388 83.7376 126.921 83.5918 126.292 83.5918C125.608 83.5918 125.096 83.8379 124.754 84.3301C124.417 84.8177 124.243 85.5765 124.234 86.6064V87.3584C124.234 88.4339 124.396 89.2201 124.72 89.7168C125.048 90.2135 125.563 90.4619 126.265 90.4619C126.898 90.4619 127.37 90.3184 127.68 90.0312C127.994 89.7396 128.174 89.2907 128.22 88.6846H130.271Z" fill="#4F4F4F"/>
<path d="M29.8281 28.7734H35.2188V30H28.3203V18.625H29.8281V28.7734ZM38.2734 30H36.8281V21.5469H38.2734V30ZM36.7109 19.3047C36.7109 19.0703 36.7812 18.8724 36.9219 18.7109C37.0677 18.5495 37.2812 18.4688 37.5625 18.4688C37.8438 18.4688 38.0573 18.5495 38.2031 18.7109C38.349 18.8724 38.4219 19.0703 38.4219 19.3047C38.4219 19.5391 38.349 19.7344 38.2031 19.8906C38.0573 20.0469 37.8438 20.125 37.5625 20.125C37.2812 20.125 37.0677 20.0469 36.9219 19.8906C36.7812 19.7344 36.7109 19.5391 36.7109 19.3047ZM42.5547 19.5V21.5469H44.1328V22.6641H42.5547V27.9062C42.5547 28.2448 42.625 28.5 42.7656 28.6719C42.9062 28.8385 43.1458 28.9219 43.4844 28.9219C43.651 28.9219 43.8802 28.8906 44.1719 28.8281V30C43.7917 30.1042 43.4219 30.1562 43.0625 30.1562C42.4167 30.1562 41.9297 29.9609 41.6016 29.5703C41.2734 29.1797 41.1094 28.625 41.1094 27.9062V22.6641H39.5703V21.5469H41.1094V19.5H42.5547ZM49.3359 30.1562C48.1901 30.1562 47.2578 29.7812 46.5391 29.0312C45.8203 28.276 45.4609 27.2682 45.4609 26.0078V25.7422C45.4609 24.9036 45.6198 24.1562 45.9375 23.5C46.2604 22.8385 46.7083 22.3229 47.2812 21.9531C47.8594 21.5781 48.4844 21.3906 49.1562 21.3906C50.2552 21.3906 51.1094 21.7526 51.7188 22.4766C52.3281 23.2005 52.6328 24.237 52.6328 25.5859V26.1875H46.9062C46.9271 27.0208 47.1693 27.6953 47.6328 28.2109C48.1016 28.7214 48.6953 28.9766 49.4141 28.9766C49.9245 28.9766 50.3568 28.8724 50.7109 28.6641C51.0651 28.4557 51.375 28.1797 51.6406 27.8359L52.5234 28.5234C51.8151 29.612 50.7526 30.1562 49.3359 30.1562ZM49.1562 22.5781C48.5729 22.5781 48.0833 22.7917 47.6875 23.2188C47.2917 23.6406 47.0469 24.2344 46.9531 25H51.1875V24.8906C51.1458 24.1562 50.9479 23.5885 50.5938 23.1875C50.2396 22.7812 49.7604 22.5781 49.1562 22.5781ZM57.7031 28.9766C58.2188 28.9766 58.6693 28.8203 59.0547 28.5078C59.4401 28.1953 59.6536 27.8047 59.6953 27.3359H61.0625C61.0365 27.8203 60.8698 28.2812 60.5625 28.7188C60.2552 29.1562 59.8438 29.5052 59.3281 29.7656C58.8177 30.026 58.276 30.1562 57.7031 30.1562C56.5521 30.1562 55.6354 29.7734 54.9531 29.0078C54.276 28.237 53.9375 27.1849 53.9375 25.8516V25.6094C53.9375 24.7865 54.0885 24.0547 54.3906 23.4141C54.6927 22.7734 55.125 22.276 55.6875 21.9219C56.2552 21.5677 56.9245 21.3906 57.6953 21.3906C58.6432 21.3906 59.4297 21.6745 60.0547 22.2422C60.6849 22.8099 61.0208 23.5469 61.0625 24.4531H59.6953C59.6536 23.9062 59.4453 23.4583 59.0703 23.1094C58.7005 22.7552 58.2422 22.5781 57.6953 22.5781C56.9609 22.5781 56.3906 22.8438 55.9844 23.375C55.5833 23.901 55.3828 24.6641 55.3828 25.6641V25.9375C55.3828 26.9115 55.5833 27.6615 55.9844 28.1875C56.3854 28.7135 56.9583 28.9766 57.7031 28.9766ZM62.3047 25.6953C62.3047 24.8672 62.4661 24.1224 62.7891 23.4609C63.1172 22.7995 63.5703 22.2891 64.1484 21.9297C64.7318 21.5703 65.3958 21.3906 66.1406 21.3906C67.2917 21.3906 68.2214 21.7891 68.9297 22.5859C69.6432 23.3828 70 24.4427 70 25.7656V25.8672C70 26.6901 69.8411 27.4297 69.5234 28.0859C69.2109 28.737 68.7604 29.2448 68.1719 29.6094C67.5885 29.974 66.9167 30.1562 66.1562 30.1562C65.0104 30.1562 64.0807 29.7578 63.3672 28.9609C62.6589 28.1641 62.3047 27.1094 62.3047 25.7969V25.6953ZM63.7578 25.8672C63.7578 26.8047 63.974 27.5573 64.4062 28.125C64.8438 28.6927 65.4271 28.9766 66.1562 28.9766C66.8906 28.9766 67.474 28.6901 67.9062 28.1172C68.3385 27.5391 68.5547 26.7318 68.5547 25.6953C68.5547 24.7682 68.3333 24.0182 67.8906 23.4453C67.4531 22.8672 66.8698 22.5781 66.1406 22.5781C65.4271 22.5781 64.8516 22.862 64.4141 23.4297C63.9766 23.9974 63.7578 24.8099 63.7578 25.8672ZM73.3828 30H71.9375V21.5469H73.3828V30ZM71.8203 19.3047C71.8203 19.0703 71.8906 18.8724 72.0312 18.7109C72.1771 18.5495 72.3906 18.4688 72.6719 18.4688C72.9531 18.4688 73.1667 18.5495 73.3125 18.7109C73.4583 18.8724 73.5312 19.0703 73.5312 19.3047C73.5312 19.5391 73.4583 19.7344 73.3125 19.8906C73.1667 20.0469 72.9531 20.125 72.6719 20.125C72.3906 20.125 72.1771 20.0469 72.0312 19.8906C71.8906 19.7344 71.8203 19.5391 71.8203 19.3047ZM77.0703 21.5469L77.1172 22.6094C77.763 21.7969 78.6068 21.3906 79.6484 21.3906C81.4349 21.3906 82.3359 22.3984 82.3516 24.4141V30H80.9062V24.4062C80.901 23.7969 80.7604 23.3464 80.4844 23.0547C80.2135 22.763 79.7891 22.6172 79.2109 22.6172C78.7422 22.6172 78.3307 22.7422 77.9766 22.9922C77.6224 23.2422 77.3464 23.5703 77.1484 23.9766V30H75.7031V21.5469H77.0703Z" fill="black"/>
<path d="M94.2031 28.7734H99.5938V30H92.6953V18.625H94.2031V28.7734ZM107.008 19.8594H103.352V30H101.859V19.8594H98.2109V18.625H107.008V19.8594ZM116.844 26.3906C116.703 27.5938 116.258 28.5234 115.508 29.1797C114.763 29.8307 113.771 30.1562 112.531 30.1562C111.188 30.1562 110.109 29.6745 109.297 28.7109C108.49 27.7474 108.086 26.4583 108.086 24.8438V23.75C108.086 22.6927 108.273 21.763 108.648 20.9609C109.029 20.1589 109.565 19.5443 110.258 19.1172C110.951 18.6849 111.753 18.4688 112.664 18.4688C113.872 18.4688 114.841 18.8073 115.57 19.4844C116.299 20.1562 116.724 21.0885 116.844 22.2812H115.336C115.206 21.375 114.922 20.7188 114.484 20.3125C114.052 19.9062 113.445 19.7031 112.664 19.7031C111.706 19.7031 110.953 20.0573 110.406 20.7656C109.865 21.474 109.594 22.4818 109.594 23.7891V24.8906C109.594 26.125 109.852 27.1068 110.367 27.8359C110.883 28.5651 111.604 28.9297 112.531 28.9297C113.365 28.9297 114.003 28.7422 114.445 28.3672C114.893 27.987 115.19 27.3281 115.336 26.3906H116.844Z" fill="#828282"/>
<path d="M37.7061 54.4497C37.703 54.4038 37.7192 54.3585 37.7511 54.324L39.1932 52.7605C39.2251 52.726 39.2701 52.7049 39.3183 52.7019C39.3667 52.699 39.4139 52.7144 39.4502 52.7447C40.1128 53.2998 40.6629 53.9544 41.0851 54.6904C41.1082 54.7308 41.1137 54.7783 41.1001 54.8224C41.0865 54.8665 41.0551 54.9037 41.0127 54.9258L39.0959 55.9242C39.0682 55.9387 39.0383 55.9455 39.0087 55.9455C38.9444 55.9455 38.8819 55.9129 38.8489 55.8552C38.5698 55.3688 38.206 54.9359 37.7676 54.5688C37.7313 54.5385 37.7092 54.4956 37.7061 54.4497Z" fill="#828282"/>
<path d="M37.0624 53.8706C37.0297 53.9294 36.9666 53.9628 36.9014 53.9628C36.8726 53.9628 36.8434 53.9563 36.8162 53.9426C36.3025 53.6829 35.7498 53.5135 35.1735 53.439C35.0739 53.4261 35.004 53.3387 35.0176 53.2438L35.3112 51.1811C35.3247 51.0862 35.4166 51.0197 35.516 51.0325C36.3912 51.1456 37.2304 51.4028 38.0104 51.7971C38.0992 51.842 38.133 51.9469 38.086 52.0316L37.0624 53.8706Z" fill="#828282"/>
<path d="M39.4072 56.662L41.5155 56.1169C41.5621 56.1049 41.6118 56.111 41.6537 56.1339C41.6956 56.1568 41.7262 56.1945 41.7388 56.2389C41.9121 56.8477 42 57.4786 42 58.1142C42 58.223 41.9973 58.3321 41.9916 58.4479C41.9871 58.5408 41.9066 58.6133 41.8099 58.6133C41.8071 58.6133 41.8042 58.6132 41.8013 58.6131L39.6192 58.517C39.571 58.5149 39.5256 58.4946 39.4931 58.4606C39.4606 58.4267 39.4435 58.3817 39.4458 58.3358C39.4496 58.2577 39.4514 58.1852 39.4514 58.1142C39.4514 57.6934 39.3935 57.2764 39.2792 56.8748C39.2529 56.7824 39.3102 56.6871 39.4072 56.662Z" fill="#828282"/>
<path d="M31.2469 51.6732C32.0413 51.3082 32.89 51.0821 33.7696 51.0009C33.8179 50.9962 33.8656 51.0104 33.9029 51.0396C33.9401 51.0689 33.9637 51.111 33.9683 51.1568L34.1789 53.2288C34.1887 53.3241 34.1154 53.4089 34.0153 53.4181C33.4356 53.4716 32.8765 53.6206 32.3535 53.8608C32.3287 53.8723 32.3016 53.8781 32.2745 53.8781C32.2542 53.8781 32.234 53.8748 32.2144 53.8683C32.1689 53.8532 32.1315 53.8214 32.1105 53.7799L31.162 51.9047C31.1183 51.8185 31.1563 51.7148 31.2469 51.6732Z" fill="#828282"/>
<path d="M28.0383 54.5831C28.0266 54.5385 28.0338 54.4913 28.0586 54.4518C28.5104 53.7316 29.0864 53.0975 29.7706 52.5673C29.8081 52.5383 29.8559 52.5247 29.9041 52.5293C29.9521 52.534 29.9962 52.5567 30.0267 52.5924L31.405 54.2073C31.4354 54.243 31.4498 54.2888 31.4448 54.3345C31.4399 54.3803 31.4161 54.4223 31.3786 54.4514C30.9259 54.8022 30.5449 55.2215 30.2461 55.6979C30.212 55.7522 30.1517 55.7824 30.0897 55.7824C30.0579 55.7824 30.0257 55.7744 29.9965 55.7577L28.1215 54.6897C28.0801 54.6661 28.0502 54.6278 28.0383 54.5831Z" fill="#828282"/>
<path d="M27.3419 55.9752C27.372 55.8838 27.4742 55.8328 27.5701 55.8616L29.6546 56.4839C29.7505 56.5126 29.8039 56.6099 29.7739 56.7013C29.6242 57.1564 29.5484 57.6318 29.5484 58.1142C29.5484 58.1852 29.5503 58.2577 29.554 58.3357C29.5563 58.3816 29.5393 58.4266 29.5067 58.4606C29.4742 58.4946 29.4288 58.5149 29.3806 58.517L27.1985 58.613C27.1956 58.6132 27.1928 58.6132 27.1899 58.6132C27.0933 58.6132 27.0128 58.5408 27.0082 58.4478C27.0026 58.3321 26.9998 58.223 26.9998 58.1142C26.9999 57.3852 27.1149 56.6655 27.3419 55.9752Z" fill="#828282"/>
<path d="M34.5063 57.746C34.5377 57.746 34.569 57.747 34.6001 57.7485L37.5572 56.086C37.6295 56.0452 37.7214 56.0554 37.7821 56.1108C37.8427 56.1662 37.8573 56.2533 37.8177 56.3239L36.2046 59.2049C36.2106 59.2604 36.2137 59.3165 36.2137 59.373C36.2137 59.8076 36.0361 60.2162 35.7137 60.5234C35.3912 60.8308 34.9624 61 34.5063 61C34.0502 61 33.6215 60.8307 33.299 60.5234C32.9765 60.2162 32.7989 59.8076 32.7989 59.373C32.7989 58.9384 32.9765 58.5298 33.299 58.2225C33.6215 57.9152 34.0503 57.746 34.5063 57.746Z" fill="#828282"/>
<defs>
<filter id="filter0_d_2_12" x="0" y="0" width="298" height="121" filterUnits="userSpaceOnUse" color-interpolation-filters="sRGB">
<feFlood flood-opacity="0" result="BackgroundImageFix"/>
<feColorMatrix in="SourceAlpha" type="matrix" values="0 0 0 0 0 0 0 0 0 0 0 0 0 0 0 0 0 0 127 0" result="hardAlpha"/>
<feOffset dy="4"/>
<feGaussianBlur stdDeviation="2"/>
<feColorMatrix type="matrix" values="0 0 0 0 0 0 0 0 0 0 0 0 0 0 0 0 0 0 0.03 0"/>
<feBlend mode="normal" in2="BackgroundImageFix" result="effect1_dropShadow_2_12"/>
<feBlend mode="normal" in="SourceGraphic" in2="effect1_dropShadow_2_12" result="shape"/>
</filter>
<linearGradient id="paint0_linear_2_12" x1="164.5" y1="77.5" x2="271" y2="66" gradientUnits="userSpaceOnUse">
<stop stop-color="#2D9CDB"/>
<stop offset="1" stop-color="#255F80"/>
</linearGradient>
</defs>
</svg>
